<svg width="347" height="179" viewBox="0 0 347 179" fill="none" xmlns="http://www.w3.org/2000/svg">
<path opacity="0.1" d="M163.773 179C254.223 179 327.547 175.613 327.547 171.435C327.547 167.257 254.223 163.87 163.773 163.87C73.3238 163.87 0 167.257 0 171.435C0 175.613 73.3238 179 163.773 179Z" fill="#929799"/>
<path d="M196.966 149.35C197.33 151.668 197.695 154.108 198.06 156.549C198.425 158.623 198.789 160.697 199.276 162.65C190.279 164.48 181.281 166.432 172.284 168.262C172.892 162.04 173.5 155.695 174.108 149.472C176.783 148.862 179.944 148.252 183.591 148.13C189.063 147.885 193.561 148.618 196.966 149.35Z" fill="#B9B9B9"/>
<path d="M173.622 154.84C179.458 156.549 185.415 158.379 191.251 160.209C193.926 161.063 196.601 161.918 199.276 162.772C199.519 164.114 199.641 165.334 199.884 166.676C200.005 168.262 199.033 168.507 197.695 168.384C189.306 168.384 180.795 168.384 172.406 168.384C172.771 163.87 173.257 159.355 173.622 154.84Z" fill="#F0F0F0"/>
<path d="M254.961 150.204H114.289C112.708 150.204 111.371 148.862 111.371 147.275V128.851C111.371 127.264 112.708 125.922 114.289 125.922H254.961C256.542 125.922 257.879 127.264 257.879 128.851V147.275C258.001 148.862 256.663 150.204 254.961 150.204Z" fill="#FBFBFB"/>
<path d="M252.894 135.928H116.356C113.073 135.928 110.276 133.243 110.276 129.827V54.6639C110.276 51.3695 112.951 48.563 116.356 48.563H252.894C256.177 48.563 258.973 51.2474 258.973 54.6639V129.949C258.973 133.243 256.298 135.928 252.894 135.928Z" fill="#252728"/>
<path d="M263.894 75.3372L180.223 101.166L183.977 113.412L267.648 87.5828L263.894 75.3372Z" fill="#E6E6E6"/>
<path d="M201.221 107.254C201.829 106.155 202.315 105.057 202.802 104.081C204.504 100.787 206.085 97.3701 207.787 94.0757C208.03 93.4656 208.395 93.0995 209.246 92.8555C211.799 92.1234 217.392 90.2931 217.513 90.4151C217.635 90.5372 217.513 90.6592 217.392 90.7812C216.176 93.2215 214.96 95.6619 213.623 98.2243C212.65 100.177 211.677 102.129 210.705 104.081C210.583 104.325 210.462 104.447 210.218 104.569C207.3 105.423 204.382 106.399 201.464 107.254C201.464 107.254 201.343 107.254 201.221 107.254Z" fill="#FE4800"/>
<path d="M216.176 102.617C216.784 101.519 217.27 100.421 217.756 99.4444C219.459 96.15 221.039 92.7335 222.741 89.439C222.984 88.8289 223.349 88.4628 224.2 88.2188C226.754 87.4867 229.428 86.6326 231.982 85.7784C232.103 85.7784 232.346 85.5344 232.468 85.6564C232.59 85.7784 232.468 85.9005 232.346 86.0225C231.131 88.4628 229.915 90.9032 228.577 93.4656C227.605 95.4178 226.632 97.3701 225.659 99.3224C225.538 99.5665 225.416 99.6885 225.173 99.8105C222.255 100.665 219.337 101.641 216.419 102.495C216.419 102.617 216.297 102.617 216.176 102.617Z" fill="#FE4800"/>
<path d="M231.131 98.1022C231.739 97.0041 232.225 95.9059 232.711 94.9298C234.413 91.6353 235.994 88.2188 237.696 84.9243C237.939 84.3142 238.304 83.9482 239.155 83.7041C241.708 82.972 244.383 82.1179 246.936 81.2638C247.058 81.2638 247.301 81.0198 247.423 81.1418C247.544 81.2638 247.423 81.3858 247.301 81.5078C246.085 83.9482 244.87 86.3885 243.532 88.9509C242.559 90.9032 241.587 92.8555 240.614 94.8078C240.493 95.0518 240.371 95.1738 240.128 95.2958C237.21 96.15 234.292 97.1261 231.374 97.9802C231.374 97.9802 231.374 97.9802 231.131 98.1022Z" fill="#FE4800"/>
<path d="M246.085 93.4656C246.693 92.3674 247.18 91.2693 247.666 90.2931C249.368 86.9986 250.949 83.5821 252.651 80.2877C252.894 79.6776 253.259 79.3115 254.11 79.0675C256.663 78.3354 259.338 77.4813 261.891 76.6271C262.013 76.6271 262.256 76.3831 262.378 76.5051C262.499 76.6271 262.378 76.7491 262.256 76.8712C261.04 79.3115 259.824 81.7519 258.487 84.3142C257.514 86.2665 256.542 88.2188 255.569 90.1711C255.447 90.4151 255.326 90.5371 255.083 90.6592C252.165 91.5133 249.247 92.4894 246.329 93.3436C246.329 93.3436 246.329 93.3436 246.085 93.4656Z" fill="#FE4800"/>
<path d="M188.181 98.8991L104.51 124.728L108.264 136.973L191.935 111.145L188.181 98.8991Z" fill="#E6E6E6"/>
<path d="M110.52 135.318C111.127 134.22 111.614 133.121 112.1 132.145C113.802 128.851 115.383 125.434 117.085 122.14C117.328 121.53 117.693 121.164 118.544 120.92C121.097 120.187 123.772 119.333 126.325 118.479C126.447 118.479 126.69 118.235 126.812 118.357C126.933 118.479 126.812 118.601 126.69 118.723C125.474 121.164 124.258 123.604 122.921 126.166C121.948 128.119 120.976 130.071 120.003 132.023C119.881 132.267 119.76 132.389 119.517 132.511C116.599 133.365 113.681 134.342 110.763 135.196C110.763 135.318 110.641 135.318 110.52 135.318Z" fill="#FE4800"/>
<path d="M125.474 130.803C126.082 129.705 126.569 128.607 127.055 127.631C128.757 124.336 130.338 120.92 132.04 117.625C132.283 117.015 132.648 116.649 133.499 116.405C136.052 115.673 138.727 114.819 141.28 113.965C141.402 113.965 141.645 113.721 141.767 113.843C141.888 113.965 141.767 114.087 141.645 114.209C140.429 116.649 139.213 119.089 137.876 121.652C136.903 123.604 135.931 125.556 134.958 127.509C134.836 127.753 134.715 127.875 134.472 127.997C131.554 128.851 128.636 129.827 125.718 130.681C125.718 130.681 125.718 130.681 125.474 130.803Z" fill="#FE4800"/>
<path d="M140.429 126.166C141.037 125.068 141.523 123.97 142.01 122.994C143.712 119.699 145.293 116.283 146.995 112.988C147.238 112.378 147.603 112.012 148.454 111.768C151.007 111.036 153.682 110.182 156.235 109.328C156.357 109.328 156.6 109.084 156.721 109.206C156.843 109.328 156.721 109.45 156.6 109.572C155.384 112.012 154.168 114.453 152.831 117.015C151.858 118.967 150.885 120.92 149.913 122.872C149.791 123.116 149.67 123.238 149.426 123.36C146.508 124.214 143.59 125.19 140.672 126.044C140.672 126.044 140.672 126.044 140.429 126.166Z" fill="#FE4800"/>
<path d="M155.506 121.53C156.114 120.431 156.6 119.333 157.086 118.357C158.788 115.063 160.369 111.646 162.071 108.352C162.314 107.742 162.679 107.376 163.53 107.132C166.083 106.399 168.758 105.545 171.311 104.691C171.433 104.691 171.676 104.447 171.798 104.569C171.919 104.691 171.798 104.813 171.676 104.935C170.46 107.376 169.245 109.816 167.907 112.378C166.934 114.331 165.962 116.283 164.989 118.235C164.868 118.479 164.746 118.601 164.503 118.723C161.585 119.577 158.667 120.554 155.749 121.408C155.749 121.408 155.627 121.53 155.506 121.53Z" fill="#FE4800"/>
<path d="M170.46 116.893C171.068 115.795 171.555 114.697 172.041 113.72C173.743 110.426 175.324 107.01 177.026 103.715C177.269 103.105 177.634 102.739 178.485 102.495C181.038 101.763 186.631 99.9325 186.753 100.055C186.874 100.177 186.753 100.299 186.631 100.421C185.415 102.861 184.199 105.301 182.862 107.864C181.889 109.816 180.917 111.768 179.944 113.72C179.822 113.965 179.701 114.087 179.458 114.209C176.54 115.063 173.622 116.039 170.704 116.893C170.704 116.893 170.582 116.893 170.46 116.893Z" fill="#FE4800"/>
<path d="M186.145 111.89C186.753 110.792 187.239 109.694 187.725 108.718C189.428 105.423 191.008 102.007 192.71 98.7123C192.953 98.1022 193.318 97.7362 194.169 97.4922C196.723 96.7601 202.315 94.9298 202.437 95.0518C202.559 95.1738 202.437 95.2958 202.315 95.4179C201.1 97.8582 199.884 100.299 198.546 102.861C197.574 104.813 196.601 106.766 195.628 108.718C195.507 108.962 195.385 109.084 195.142 109.206C192.224 110.06 189.306 111.036 186.388 111.89C186.388 111.89 186.388 111.89 186.145 111.89Z" fill="#FE4800"/>
<path d="M261.671 125.847L176.012 107.714L173.377 120.251L259.036 138.383L261.671 125.847Z" fill="#E6E6E6"/>
<path d="M191.373 123.238C192.345 122.506 193.44 121.896 194.412 121.164C197.452 119.089 200.492 117.015 203.653 114.819C204.139 114.453 204.747 114.331 205.598 114.453C208.273 115.063 213.987 116.161 213.987 116.283C213.987 116.405 213.866 116.405 213.744 116.527C211.434 118.113 209.246 119.577 206.936 121.164C205.112 122.384 203.288 123.604 201.464 124.946C201.343 125.068 201.1 125.19 200.735 125.068C197.695 124.458 194.777 123.726 191.738 123.116C191.616 123.238 191.616 123.238 191.373 123.238Z" fill="#FE4800"/>
<path d="M206.692 126.41C207.665 125.678 208.759 125.068 209.732 124.336C212.772 122.262 215.811 120.187 218.972 117.991C219.459 117.625 220.067 117.503 220.918 117.625C223.593 118.235 226.267 118.723 228.821 119.333C228.942 119.333 229.185 119.333 229.307 119.455C229.307 119.577 229.185 119.577 229.064 119.699C226.754 121.286 224.565 122.75 222.255 124.336C220.431 125.556 218.608 126.776 216.784 128.119C216.662 128.241 216.419 128.363 216.054 128.241C213.015 127.631 210.097 126.898 207.057 126.288C206.936 126.532 206.936 126.532 206.692 126.41Z" fill="#FE4800"/>
<path d="M222.133 129.705C223.106 128.973 224.2 128.363 225.173 127.631C228.212 125.556 231.252 123.482 234.413 121.286C234.9 120.92 235.508 120.798 236.359 120.92C239.033 121.53 241.708 122.018 244.262 122.628C244.383 122.628 244.626 122.628 244.748 122.75C244.748 122.872 244.626 122.872 244.505 122.994C242.195 124.58 240.006 126.044 237.696 127.631C235.872 128.851 234.049 130.071 232.225 131.413C232.103 131.535 231.86 131.657 231.495 131.535C228.456 130.925 225.538 130.193 222.498 129.583C222.255 129.827 222.255 129.705 222.133 129.705Z" fill="#FE4800"/>
<path d="M237.453 132.877C238.426 132.145 239.52 131.535 240.493 130.803C243.532 128.729 246.572 126.654 249.733 124.458C250.219 124.092 250.827 123.97 251.678 124.092C254.353 124.702 257.028 125.19 259.581 125.8C259.703 125.8 259.946 125.8 260.068 125.922C260.068 126.044 259.946 126.044 259.824 126.166C257.514 127.753 255.326 129.217 253.016 130.803C251.192 132.023 249.368 133.243 247.545 134.586C247.423 134.708 247.18 134.83 246.815 134.708C243.775 134.097 240.857 133.365 237.818 132.755C237.696 132.999 237.575 132.999 237.453 132.877Z" fill="#FE4800"/>
<path d="M184.1 109.491L98.4421 91.3585L95.8072 103.895L181.465 122.028L184.1 109.491Z" fill="#E6E6E6"/>
<path d="M98.4827 103.593C99.4553 102.861 100.55 102.251 101.522 101.519C104.562 99.4444 107.601 97.3701 110.763 95.1738C111.249 94.8078 111.857 94.6857 112.708 94.8078C115.383 95.4179 118.058 95.9059 120.611 96.516C120.732 96.516 120.976 96.516 121.097 96.638C121.097 96.76 120.976 96.7601 120.854 96.8821C118.544 98.4683 116.355 99.9325 114.045 101.519C112.222 102.739 110.398 103.959 108.574 105.301C108.453 105.423 108.209 105.545 107.845 105.423C104.805 104.813 101.887 104.081 98.8474 103.471C98.7258 103.715 98.7258 103.715 98.4827 103.593Z" fill="#FE4800"/>
<path d="M113.802 106.888C114.775 106.155 115.869 105.545 116.842 104.813C119.881 102.739 122.921 100.665 126.082 98.4683C126.569 98.1022 127.176 97.9802 128.028 98.1022C130.702 98.7123 133.377 99.2004 135.93 99.8105C136.052 99.8105 136.295 99.8105 136.417 99.9325C136.417 100.055 136.295 100.055 136.174 100.177C133.864 101.763 131.675 103.227 129.365 104.813C127.541 106.033 125.717 107.254 123.894 108.596C123.772 108.718 123.529 108.84 123.164 108.718C120.125 108.108 117.207 107.376 114.167 106.766C114.045 106.888 114.045 106.888 113.802 106.888Z" fill="#FE4800"/>
<path d="M129.243 110.06C130.216 109.328 131.31 108.718 132.283 107.986C135.323 105.911 138.362 103.837 141.523 101.641C142.01 101.275 142.618 101.153 143.469 101.275C146.144 101.885 148.818 102.373 151.372 102.983C151.493 102.983 151.736 102.983 151.858 103.105C151.858 103.227 151.736 103.227 151.615 103.349C149.305 104.935 147.116 106.399 144.806 107.986C142.982 109.206 141.159 110.426 139.335 111.768C139.213 111.89 138.97 112.012 138.605 111.89C135.566 111.28 132.648 110.548 129.608 109.938C129.487 110.182 129.365 110.182 129.243 110.06Z" fill="#FE4800"/>
<path d="M144.563 113.354C145.536 112.622 146.63 112.012 147.603 111.28C150.642 109.206 153.682 107.132 156.843 104.935C157.329 104.569 157.937 104.447 158.788 104.569C161.463 105.179 164.138 105.667 166.691 106.277C166.813 106.277 167.056 106.277 167.178 106.399C167.178 106.521 167.056 106.521 166.934 106.643C164.624 108.23 162.436 109.694 160.126 111.28C158.302 112.5 156.478 113.721 154.654 115.063C154.533 115.185 154.29 115.307 153.925 115.185C150.885 114.575 147.967 113.843 144.928 113.232C144.806 113.476 144.685 113.354 144.563 113.354Z" fill="#FE4800"/>
<path d="M159.883 116.649C160.855 115.917 161.949 115.307 162.922 114.575C165.962 112.5 169.001 110.426 172.163 108.23C172.649 107.864 173.257 107.742 174.108 107.864C176.783 108.474 182.497 109.572 182.497 109.694C182.497 109.816 182.376 109.816 182.254 109.938C179.944 111.524 177.755 112.988 175.445 114.575C173.622 115.795 171.798 117.015 169.974 118.357C169.852 118.479 169.609 118.601 169.245 118.479C166.205 117.869 163.287 117.137 160.247 116.527C160.126 116.649 160.004 116.649 159.883 116.649Z" fill="#FE4800"/>
<path d="M176.053 119.943C177.026 119.211 178.12 118.601 179.093 117.869C182.132 115.795 185.172 113.721 188.333 111.524C188.82 111.158 189.427 111.036 190.279 111.158C192.953 111.768 198.668 112.866 198.668 112.988C198.668 113.11 198.546 113.11 198.425 113.232C196.115 114.819 193.926 116.283 191.616 117.869C189.792 119.089 187.968 120.309 186.145 121.652C186.023 121.774 185.78 121.896 185.415 121.774C182.376 121.164 179.458 120.431 176.418 119.821C176.296 120.065 176.175 119.943 176.053 119.943Z" fill="#FE4800"/>
<path d="M267.802 106.094L180.288 108.17L180.59 120.978L268.104 118.902L267.802 106.094Z" fill="#E6E6E6"/>
<path d="M198.789 119.699C199.64 118.723 200.491 117.869 201.221 117.015C203.774 114.209 206.206 111.524 208.759 108.718C209.246 108.23 209.61 107.986 210.583 107.986C213.258 107.986 219.094 107.742 219.215 107.864C219.337 107.986 219.094 108.108 219.094 108.108C217.27 110.182 215.325 112.134 213.501 114.209C212.042 115.795 210.583 117.503 209.124 119.089C209.002 119.211 208.881 119.455 208.516 119.455C205.476 119.455 202.315 119.577 199.276 119.699C199.032 119.699 199.032 119.699 198.789 119.699Z" fill="#FE4800"/>
<path d="M214.473 119.333C215.324 118.357 216.176 117.503 216.905 116.649C219.458 113.843 221.89 111.158 224.443 108.352C224.93 107.864 225.294 107.62 226.267 107.62C228.942 107.62 231.738 107.498 234.413 107.498C234.535 107.498 234.778 107.376 234.899 107.498C235.021 107.62 234.778 107.742 234.778 107.742C232.954 109.816 231.009 111.768 229.185 113.843C227.726 115.429 226.267 117.137 224.808 118.723C224.686 118.845 224.565 119.089 224.2 119.089C221.16 119.089 217.999 119.211 214.96 119.333C214.717 119.333 214.717 119.333 214.473 119.333Z" fill="#FE4800"/>
<path d="M230.158 118.967C231.009 117.991 231.86 117.137 232.59 116.283C235.143 113.476 237.575 110.792 240.128 107.986C240.614 107.498 240.979 107.254 241.952 107.254C244.626 107.254 247.423 107.132 250.098 107.132C250.219 107.132 250.462 107.01 250.584 107.132C250.706 107.254 250.462 107.376 250.462 107.376C248.639 109.45 246.693 111.402 244.87 113.476C243.411 115.063 241.952 116.771 240.493 118.357C240.371 118.479 240.249 118.723 239.885 118.723C236.845 118.723 233.684 118.845 230.644 118.967C230.401 118.967 230.401 118.967 230.158 118.967Z" fill="#FE4800"/>
<path d="M245.842 118.601C246.693 117.625 247.544 116.771 248.274 115.917C250.827 113.11 253.259 110.426 255.812 107.62C256.298 107.132 256.663 106.888 257.636 106.888C260.31 106.888 263.107 106.765 265.782 106.765C265.903 106.765 266.146 106.643 266.268 106.765C266.39 106.888 266.146 107.01 266.146 107.01C264.323 109.084 262.377 111.036 260.554 113.11C259.095 114.697 257.636 116.405 256.177 117.991C256.055 118.113 255.933 118.357 255.569 118.357C252.529 118.357 249.368 118.479 246.328 118.601C246.085 118.601 246.085 118.601 245.842 118.601Z" fill="#FE4800"/>
<path d="M188.652 108.045L101.138 110.121L101.44 122.929L188.954 120.853L188.652 108.045Z" fill="#E6E6E6"/>
<path d="M103.954 122.018C104.805 121.042 105.656 120.187 106.386 119.333C108.939 116.527 111.37 113.843 113.924 111.036C114.41 110.548 114.775 110.304 115.747 110.304C118.422 110.304 121.219 110.182 123.894 110.182C124.015 110.182 124.258 110.06 124.38 110.182C124.502 110.304 124.258 110.426 124.258 110.426C122.435 112.5 120.489 114.453 118.665 116.527C117.206 118.113 115.747 119.821 114.288 121.408C114.167 121.53 114.045 121.774 113.681 121.774C110.641 121.774 107.48 121.896 104.44 122.018C104.197 122.018 104.197 122.018 103.954 122.018Z" fill="#FE4800"/>
<path d="M119.638 121.652C120.489 120.676 121.34 119.821 122.07 118.967C124.623 116.161 127.055 113.476 129.608 110.67C130.094 110.182 130.459 109.938 131.432 109.938C134.107 109.938 136.903 109.816 139.578 109.816C139.699 109.816 139.943 109.694 140.064 109.816C140.186 109.938 139.943 110.06 139.943 110.06C138.119 112.134 136.174 114.087 134.35 116.161C132.891 117.747 131.432 119.455 129.973 121.042C129.851 121.164 129.73 121.408 129.365 121.408C126.325 121.408 123.164 121.53 120.125 121.652C119.881 121.652 119.76 121.652 119.638 121.652Z" fill="#FE4800"/>
<path d="M135.323 121.286C136.174 120.309 137.025 119.455 137.754 118.601C140.307 115.795 142.739 113.11 145.292 110.304C145.779 109.816 146.143 109.572 147.116 109.572C149.791 109.572 152.587 109.45 155.262 109.45C155.384 109.45 155.627 109.328 155.749 109.45C155.87 109.572 155.627 109.694 155.627 109.694C153.803 111.768 151.858 113.721 150.034 115.795C148.575 117.381 147.116 119.089 145.657 120.676C145.536 120.798 145.414 121.042 145.049 121.042C142.01 121.042 138.848 121.164 135.809 121.286C135.566 121.286 135.444 121.286 135.323 121.286Z" fill="#FE4800"/>
<path d="M151.007 120.92C151.858 119.943 152.709 119.089 153.439 118.235C155.992 115.429 158.423 112.744 160.977 109.938C161.463 109.45 161.828 109.206 162.8 109.206C165.475 109.206 168.272 109.084 170.947 109.084C171.068 109.084 171.311 108.962 171.433 109.084C171.554 109.206 171.311 109.328 171.311 109.328C169.488 111.402 167.542 113.354 165.718 115.429C164.259 117.015 162.8 118.723 161.341 120.309C161.22 120.431 161.098 120.676 160.734 120.676C157.694 120.676 154.533 120.798 151.493 120.92C151.25 120.92 151.128 120.92 151.007 120.92Z" fill="#FE4800"/>
<path d="M166.691 120.554C167.542 119.577 168.393 118.723 169.123 117.869C171.676 115.063 174.108 112.378 176.661 109.572C177.147 109.084 177.512 108.84 178.485 108.84C181.16 108.84 186.996 108.596 187.117 108.718C187.239 108.84 186.996 108.962 186.996 108.962C185.172 111.036 183.227 112.988 181.403 115.063C179.944 116.649 178.485 118.357 177.026 119.943C176.904 120.065 176.783 120.309 176.418 120.309C173.378 120.309 170.217 120.431 167.177 120.554C166.934 120.554 166.813 120.554 166.691 120.554Z" fill="#FE4800"/>
<path d="M183.105 120.065C183.956 119.089 184.807 118.235 185.537 117.381C188.09 114.575 190.522 111.89 193.075 109.084C193.561 108.596 193.926 108.352 194.899 108.352C197.573 108.352 203.409 108.108 203.531 108.23C203.653 108.352 203.409 108.474 203.409 108.474C201.586 110.548 199.64 112.5 197.817 114.575C196.358 116.161 194.899 117.869 193.44 119.455C193.318 119.577 193.196 119.821 192.832 119.821C189.792 119.821 186.631 119.943 183.591 120.065C183.348 120.065 183.348 120.065 183.105 120.065Z" fill="#FE4800"/>
<path d="M110.884 30.0164V58.5685H115.748V28.9182L110.884 30.0164Z" fill="#929799"/>
<path d="M156.843 19.8889C156.113 19.6448 155.384 19.6448 154.776 19.1568C154.533 18.1806 153.56 17.8146 152.952 17.3265C148.697 14.3981 147.481 10.7376 149.183 5.97887C149.548 5.12474 150.277 4.39263 149.913 3.29448C148.94 2.56237 148.21 3.17246 147.359 3.53851C141.645 5.97887 136.295 8.90729 130.702 11.4697C126.204 13.544 121.705 15.8623 117.207 17.9366C115.991 18.4247 114.896 18.9127 114.653 20.377C114.775 21.3531 115.626 21.8412 116.355 22.3292C117.936 23.4274 118.787 24.7696 118.666 26.7219C118.544 27.9421 118.301 29.2842 119.395 30.2604C121.584 29.6503 123.894 29.1622 126.082 28.5521C129.608 27.576 133.134 26.5999 136.66 25.5017C140.551 24.4035 144.563 23.3054 148.454 22.2072C151.128 21.5971 154.046 20.743 156.843 19.8889Z" fill="#929799"/>
<path d="M248.639 48.6851L322.44 155.207L346.878 140.32L263.837 38.6796L248.639 48.6851ZM276.117 60.3988L275.995 61.0089L262.621 59.6667L261.648 57.8364L263.472 47.2209L263.958 46.0007L265.174 46.7328L276.117 60.3988ZM311.497 107.01L297.029 107.254L295.813 105.545L299.825 92.3674L301.163 92.0014L312.227 105.667L311.497 107.01ZM328.884 130.071L315.874 130.925L313.443 127.875L318.185 113.965L326.939 124.824L329.857 128.241L328.884 130.071ZM315.874 135.928L316.847 134.22L330.829 133.487L332.775 136.05L327.668 149.106L325.358 149.472L317.09 138.002L315.874 135.928ZM298.974 112.622L298.488 111.158L300.069 110.67L313.686 110.426L315.023 112.256L310.525 125.312L309.795 126.776L308.458 125.8L298.974 112.622ZM281.953 87.2427L283.655 86.9986L295.205 87.2427L296.907 89.439L293.625 100.787L292.774 102.739L290.95 101.397L283.168 90.0491L282.682 89.195L281.953 87.2427ZM278.67 81.6299L281.709 69.7941L282.317 68.818L283.29 69.4281L293.746 82.484L293.017 83.9482L289.734 83.8262L280.25 83.4601L278.67 81.6299ZM264.688 63.4492L268.335 63.5712L276.968 64.3033L278.913 65.6455L275.752 79.1895L273.807 76.9932L266.633 66.6217L264.688 63.4492ZM255.204 48.319L259.216 45.8787L260.554 46.4888L259.338 53.6878L258.73 54.6639L257.636 53.9318L254.839 49.7832L255.204 48.319Z" fill="#929799"/>
<path d="M228.699 25.0136H229.672L232.711 25.7457L242.073 28.3081L244.505 22.6953L191.859 10.3715L162.193 2.44035L155.141 18.4247L237.088 40.0218L241.101 30.7485L235.508 34.531L232.954 34.0429L228.821 25.9898L228.699 25.0136ZM165.354 15.9843L163.53 11.9577L161.95 8.2972L161.828 7.07703L163.044 7.19904L174.351 10.1275L175.689 10.8596L174.716 12.0798L167.299 16.5944L165.354 15.9843ZM184.564 21.3531L183.713 22.3292L171.068 18.7907L170.339 18.1806L170.947 17.4485L178.971 12.3238L180.673 12.6898L184.564 21.3531ZM187.847 22.2072L184.199 14.1541L185.415 13.0559L189.914 14.2761L198.546 16.7164L190.035 22.8173L187.847 22.2072ZM206.936 27.9421L205.598 28.1861L194.048 25.1357L193.683 23.1834L201.1 18.6687L203.41 19.4008L206.449 25.5017L206.936 27.9421ZM210.218 27.698L208.516 23.7935H208.395L206.692 19.8889L207.422 18.9127L219.702 22.2072L220.067 23.7935L212.285 28.5521L210.218 27.698ZM229.55 34.0429L228.456 34.165L216.297 30.8705L215.446 30.1384L216.176 29.5283L223.957 24.4035L225.659 24.8916L229.307 32.2127L229.55 34.0429Z" fill="#929799"/>
<path d="M247.544 50.0273C256.542 50.0273 263.837 43.144 263.837 34.653C263.837 26.1621 256.542 19.2788 247.544 19.2788C238.546 19.2788 231.252 26.1621 231.252 34.653C231.252 43.144 238.546 50.0273 247.544 50.0273Z" fill="#72787A"/>
<path d="M155.992 22.9393C162.707 22.9393 168.15 17.8042 168.15 11.4697C168.15 5.13514 162.707 0 155.992 0C149.277 0 143.833 5.13514 143.833 11.4697C143.833 17.8042 149.277 22.9393 155.992 22.9393Z" fill="#72787A"/>
<path d="M115.261 34.287C119.559 34.287 123.043 30.9546 123.043 26.8439C123.043 22.7332 119.559 19.4008 115.261 19.4008C110.964 19.4008 107.48 22.7332 107.48 26.8439C107.48 30.9546 110.964 34.287 115.261 34.287Z" fill="#72787A"/>
<path d="M298.731 170.337C298.488 170.093 298.002 169.971 297.637 170.215C297.394 170.215 297.272 170.337 297.029 170.337C295.935 170.337 294.841 170.337 293.746 170.337C291.68 170.337 291.68 170.337 291.315 168.262C290.828 165.7 290.099 163.26 289.491 160.697C289.248 160.453 289.005 160.331 288.762 160.331C286.33 160.331 283.777 160.331 281.345 160.453C280.98 160.453 280.737 160.453 280.494 160.819C280.372 160.453 280.007 160.453 279.643 160.575C279.278 160.697 279.035 160.575 278.67 160.575C278.305 160.453 277.819 160.697 277.454 160.697C275.144 160.697 272.712 160.697 270.402 160.697C270.038 160.697 269.673 160.697 269.43 160.941C268.822 163.992 268.092 166.92 267.484 169.971C267.363 170.459 267.241 170.703 266.633 170.703C264.81 170.703 262.986 170.825 261.162 170.825C260.311 170.825 260.676 171.435 260.554 171.801C260.433 172.289 260.797 172.289 261.162 172.289C262.135 172.289 263.107 172.289 264.08 172.167C265.904 172.167 267.728 172.167 269.551 172.167C271.375 172.167 273.32 172.167 275.144 172.045C276.725 172.045 278.184 172.045 279.764 171.923C280.008 171.923 280.129 172.045 280.372 172.045C283.169 172.045 286.087 171.923 288.883 171.923C291.68 171.923 294.598 171.923 297.394 171.801C297.88 171.801 298.488 172.045 298.975 171.557C298.975 171.069 299.096 170.703 298.731 170.337Z" fill="#FEAC00"/>
<path d="M288.64 156.671C288.032 153.864 287.424 151.18 286.573 148.496C286.33 148.252 272.469 148.252 272.105 148.618C271.253 152.766 270.281 156.793 269.43 160.941C269.551 160.941 287.303 160.819 289.613 160.819C289.491 159.233 288.883 158.013 288.64 156.671Z" fill="#FEFEFE"/>
<path d="M285.479 143.859C284.992 141.053 284.02 138.368 283.533 135.684C283.29 134.22 283.169 134.097 281.71 134.097C280.859 134.097 280.007 133.975 279.035 134.22C278.184 134.22 277.211 134.097 276.36 134.097C275.144 134.097 275.144 134.22 274.901 135.318C274.901 135.44 274.779 135.684 274.779 135.806C273.807 140.076 272.956 144.225 271.983 148.496C274.415 148.496 284.141 148.374 286.451 148.374C286.451 146.909 285.722 145.445 285.479 143.859Z" fill="#FEAC00"/>
<path opacity="0.33" d="M270.646 154.718L271.253 150.692L291.436 168.262L270.646 154.718Z" fill="#A5A1A9"/>
<path d="M242.073 172.289C242.438 172.167 242.681 171.801 242.56 171.313C242.56 171.069 242.56 170.947 242.681 170.703C243.046 169.727 243.532 168.629 243.897 167.652C244.627 165.7 244.748 165.822 246.815 166.188C249.368 166.676 251.922 167.042 254.475 167.286C254.718 167.164 254.961 166.92 255.083 166.676C256.055 164.358 256.906 162.04 257.758 159.843C257.879 159.599 258.001 159.233 257.758 158.867C258.122 158.867 258.244 158.501 258.365 158.257C258.365 157.891 258.609 157.647 258.73 157.403C258.973 157.037 258.973 156.549 259.095 156.183C260.068 153.986 260.797 151.79 261.648 149.594C261.77 149.228 262.013 148.862 261.77 148.496C259.217 146.787 256.663 144.957 254.11 143.249C253.745 143.005 253.502 142.761 253.745 142.151C254.475 140.442 255.083 138.734 255.812 137.026C256.177 136.294 255.447 136.294 255.083 136.05C254.596 135.684 254.596 136.172 254.475 136.416C254.11 137.392 253.745 138.246 253.381 139.222C252.773 140.93 252.043 142.639 251.314 144.225C250.584 145.933 249.855 147.641 249.247 149.472C248.76 150.936 248.031 152.278 247.666 153.742C247.545 153.864 247.423 154.108 247.301 154.23C246.207 156.915 245.234 159.599 244.14 162.162C243.046 164.846 241.952 167.408 240.979 170.093C240.857 170.581 240.371 171.069 240.614 171.679C241.222 172.167 241.587 172.411 242.073 172.289Z" fill="#FEAC00"/>
<path d="M258.609 168.018C261.405 168.506 264.08 168.873 266.876 169.239C267.241 169.117 272.348 156.183 272.226 155.695C268.822 153.376 265.296 150.936 261.891 148.618C261.77 148.74 255.326 165.212 254.475 167.408C255.691 167.774 257.15 167.774 258.609 168.018Z" fill="#FEFEFE"/>
<path d="M271.497 169.849C274.293 170.459 277.09 170.581 279.764 171.191C281.223 171.557 281.345 171.435 281.831 170.093C282.196 169.239 282.561 168.506 282.804 167.652C283.169 166.798 283.533 165.944 283.898 165.212C284.263 164.114 284.263 164.114 283.29 163.382C283.169 163.26 283.047 163.138 282.926 163.016C279.4 160.575 275.752 158.135 272.226 155.695C271.375 157.891 267.849 167.042 266.876 169.239C268.335 169.727 269.916 169.605 271.497 169.849Z" fill="#FEAC00"/>
<path d="M220.431 169.971H218.121L201.464 102.495H203.774L220.431 169.971Z" fill="#72787A"/>
<path d="M210.097 169.971H207.787L191.251 102.495H193.561L210.097 169.971Z" fill="#72787A"/>
<path d="M204.261 110.06H195.02L194.534 108.23H203.774L204.261 110.06Z" fill="#72787A"/>
<path d="M205.963 117.869H196.722L196.236 116.039H205.476L205.963 117.869Z" fill="#72787A"/>
<path d="M207.3 125.8H198.06L197.573 123.97H206.814L207.3 125.8Z" fill="#72787A"/>
<path d="M210.34 133.609H201.1L200.613 131.901H209.854L210.34 133.609Z" fill="#72787A"/>
<path d="M212.042 141.541H202.802L202.315 139.71H211.556L212.042 141.541Z" fill="#72787A"/>
<path d="M213.38 149.35H204.139L203.653 147.641H212.893L213.38 149.35Z" fill="#72787A"/>
<path d="M215.446 157.281H206.206L205.72 155.451H214.96L215.446 157.281Z" fill="#72787A"/>
<path d="M217.149 165.212H207.908L207.422 163.382H216.662L217.149 165.212Z" fill="#72787A"/>
<path d="M111.249 77.1152C109.547 77.1152 107.966 77.1152 106.264 77.1152C106.021 76.3831 105.778 75.529 105.656 74.7969C105.048 70.5262 106.994 67.5978 110.763 65.5235C110.884 65.4015 111.006 65.4015 111.127 65.2795C111.249 64.5474 111.127 63.9373 111.249 63.2052C111.249 62.229 111.249 61.3749 111.249 60.3988C111.249 60.1547 111.249 59.9107 111.614 59.9107C112.708 59.7887 113.802 59.7887 114.897 59.9107C115.018 59.9107 115.018 60.0327 115.14 60.0327C115.14 62.3511 115.14 64.7914 115.14 67.1097C115.14 67.4758 115.018 67.5978 114.653 67.7198C112.83 68.0859 111.371 68.94 110.52 70.5262C109.547 72.2345 109.304 74.9189 110.641 76.5051C110.884 76.7492 111.006 76.9932 111.249 77.1152Z" fill="#929799"/>
<path d="M124.38 45.7567H100.428C99.9418 46.1227 99.577 46.7328 99.6986 47.2209C99.8202 47.831 101.887 57.8364 102.13 58.6905C102.252 59.4226 102.617 59.9107 103.346 60.1547C103.468 60.2768 103.711 60.2768 103.954 60.2768C106.386 60.1547 108.696 60.3988 111.127 60.3988C112.1 60.3988 112.951 60.3988 113.924 60.3988C116.356 60.5208 118.666 60.1547 120.976 60.2768C121.219 60.2768 121.341 60.2768 121.584 60.1547C122.435 59.9107 122.8 59.3006 122.921 58.4465C123.286 56.6162 125.353 46.8548 125.11 46.3667C124.866 46.1227 124.623 45.8787 124.38 45.7567Z" fill="#929799"/>
<path d="M114.775 156.427L78.7862 131.535C72.2207 127.02 70.5185 117.747 75.0171 111.158L99.8202 75.0409C104.319 68.4519 113.559 66.7437 120.125 71.2583L156.113 96.15C162.679 100.665 164.381 109.938 159.883 116.527L135.079 152.644C130.459 159.355 121.341 161.063 114.775 156.427Z" fill="#FEAC00"/>
<path d="M114.045 152.888L82.3121 130.925C75.7466 126.41 74.0444 117.137 78.543 110.548L100.428 78.7014C104.927 72.1125 114.167 70.4042 120.733 74.9189L152.466 96.8821C159.031 101.397 160.734 110.67 156.235 117.259L134.35 149.106C129.851 155.695 120.733 157.403 114.045 152.888Z" stroke="#252728" stroke-miterlimit="10"/>
<path d="M122.921 72.2345C122.921 71.8685 122.678 71.6244 122.799 71.2584C122.799 70.6483 122.678 70.0382 122.313 69.5501C122.313 69.5501 122.313 69.5501 122.192 69.5501C122.07 69.1841 121.827 68.818 121.584 68.574C121.584 68.574 121.584 68.574 121.584 68.452C120.854 67.8419 118.909 68.2079 118.544 69.1841C118.422 69.7941 118.301 70.2822 118.544 70.8923C118.909 71.3804 118.909 71.8684 119.03 72.3565C119.517 74.1868 119.152 75.895 117.571 77.2372C117.085 77.7253 116.599 78.0913 115.869 78.3354C115.383 78.4574 114.897 78.4574 114.41 78.7014C113.559 78.7014 113.438 79.3115 113.438 79.9216C113.438 80.1657 113.438 80.5317 113.438 80.7757C113.559 81.5078 113.924 81.9959 114.653 82.1179C115.626 82.24 116.72 82.1179 117.571 81.5079C118.179 81.2638 118.787 81.0198 119.274 80.6537C120.611 79.7996 121.584 78.7014 122.313 77.3592C122.313 77.2372 122.313 77.2372 122.435 77.1152C123.043 75.407 123.043 73.8207 122.921 72.2345Z" fill="#72787A"/>
<path d="M98.1623 117.692L97.021 119.346L99.0396 120.285L99.8466 123.876L98.2457 126.282L92.8423 127.505L89.8286 114.095L95.2321 112.872L97.3679 114.157L98.1623 117.692ZM94.7525 115.634L93.4811 115.921L94.1199 118.764L95.3913 118.477L94.7525 115.634ZM95.9588 121.002L94.6874 121.289L95.3599 124.282L96.6313 123.994L95.9588 121.002Z" fill="white"/>
<path d="M104.159 110.851L109.174 123.809L106.145 124.494L105.328 122.085L103.533 122.491L103.826 125.019L100.816 125.7L99.6907 111.863L104.159 110.851ZM104.536 119.61L102.704 114.168L102.405 114.236L103.19 119.915L104.536 119.61ZM102.552 106.321L102.913 107.929L102.166 109.062L102.422 110.203L100.964 110.533L100.674 109.242L101.436 108.087L101.179 106.946L100.656 107.064L100.912 108.205L99.51 108.523L99.1864 107.083L99.934 105.95L101.355 105.629L102.552 106.321Z" fill="white"/>
<path d="M114.561 110.541L116.7 120.061L115.155 122.455L111.715 123.234L109.24 121.75L107.1 112.23L108.701 109.823L112.011 109.074L114.561 110.541ZM111.606 111.819L110.316 112.111L112.195 120.472L113.485 120.18L111.606 111.819Z" fill="white"/>
<path d="M126.758 105.736L127.325 108.261L125.586 108.655L128.033 119.54L124.948 120.239L122.501 109.353L120.763 109.747L120.195 107.222L126.758 105.736Z" fill="white"/>
<path d="M135.503 105.801L136.293 109.317L135.031 110.959L136.877 111.917L138.08 117.266L135.088 117.944L133.886 112.594L132.596 112.886L133.798 118.236L130.713 118.934L127.699 105.523L132.991 104.326L135.503 105.801ZM132.642 107.058L131.352 107.35L132.028 110.361L133.319 110.069L132.642 107.058Z" fill="white"/>
<path d="M139.805 102.783L142.819 116.194L139.734 116.892L136.72 103.482L139.805 102.783ZM135.431 99.2331L138.356 100.969L137.984 101.938L134.671 101.272L134.162 100.582L134.596 99.3631L135.431 99.2331Z" fill="white"/>
<path d="M75.9899 172.899L75.5036 173.021C73.1935 173.631 70.7618 172.289 70.1539 169.971L60.0624 133.243C59.4545 130.925 60.7919 128.485 63.102 127.875L63.5884 127.753C65.8985 127.142 68.3301 128.485 68.9381 130.803L79.0295 167.53C79.6374 169.849 78.3 172.289 75.9899 172.899Z" fill="#72787A"/>
<path d="M30.1528 172.289L29.6664 172.411C27.3563 173.021 24.9247 171.679 24.3167 169.361L14.2253 132.633C13.6174 130.315 14.9548 127.875 17.2649 127.265L17.7512 127.142C20.0613 126.532 22.493 127.875 23.1009 130.193L33.1924 166.92C33.9219 169.239 32.4629 171.679 30.1528 172.289Z" fill="#72787A"/>
<path d="M5.83598 173.265L5.34965 173.143C3.03956 172.411 1.70214 170.093 2.43164 167.774L14.2253 127.265C14.9548 124.946 17.2649 123.604 19.5749 124.336L20.0613 124.458C22.3714 125.19 23.7088 127.509 22.9793 129.827L11.1857 170.337C10.5777 172.655 8.14607 173.997 5.83598 173.265Z" fill="#929799"/>
<path d="M50.7004 174.729L50.214 174.607C47.9039 173.875 46.5665 171.557 47.296 169.239L59.0896 128.729C59.8191 126.41 62.1292 125.068 64.4393 125.8L64.9257 125.922C67.2358 126.654 68.5732 128.973 67.8437 131.291L56.05 171.801C55.4421 174.119 53.0105 175.461 50.7004 174.729Z" fill="#929799"/>
<path d="M21.6418 128.607H15.6842C14.59 128.607 13.6173 127.753 13.6173 126.532V126.288C13.6173 125.19 14.4684 124.214 15.6842 124.214H21.6418C22.7361 124.214 23.7088 125.068 23.7088 126.288V126.532C23.7088 127.753 22.7361 128.607 21.6418 128.607Z" fill="#929799"/>
<path d="M18.7238 126.166H18.6022C17.8727 126.166 17.2648 125.556 17.2648 124.824V121.408C17.2648 120.676 17.8727 120.065 18.6022 120.065H18.7238C19.4533 120.065 20.0612 120.676 20.0612 121.408V124.824C20.0612 125.556 19.4533 126.166 18.7238 126.166Z" fill="#929799"/>
<path d="M18.4807 121.774C21.1666 121.774 23.344 119.589 23.344 116.893C23.344 114.197 21.1666 112.012 18.4807 112.012C15.7947 112.012 13.6173 114.197 13.6173 116.893C13.6173 119.589 15.7947 121.774 18.4807 121.774Z" fill="#929799"/>
<path d="M18.4806 120.798C20.6294 120.798 22.3713 119.049 22.3713 116.893C22.3713 114.737 20.6294 112.988 18.4806 112.988C16.3319 112.988 14.59 114.737 14.59 116.893C14.59 119.049 16.3319 120.798 18.4806 120.798Z" fill="#FEAC00"/>
<path d="M13.3742 148.618C10.213 148.496 7.05183 148.496 3.89065 148.618L2.06689 155.939C2.67481 155.573 3.28273 155.207 4.01223 154.718C6.93024 152.888 9.96984 151.058 12.8878 149.228C13.131 149.106 13.4958 148.984 13.3742 148.618Z" fill="#FE4800"/>
<path d="M65.2903 148.74C63.7098 148.74 62.1292 148.74 60.427 148.74C60.0622 148.862 59.8191 148.984 59.4543 149.228C54.4694 152.278 49.3629 155.329 44.3779 158.501C44.0132 158.745 43.6484 158.867 43.6484 159.233C47.0528 159.355 50.4571 159.355 53.8615 159.233C54.2262 159.111 54.4694 158.989 54.7126 158.867C57.8737 156.915 61.0349 154.963 64.1961 153.132L65.2903 148.74Z" fill="#FE4800"/>
<path d="M22.3713 148.618C25.7757 148.496 29.0584 148.618 32.4628 148.618C32.3412 148.984 31.8549 149.228 31.4901 149.472C26.6268 152.522 21.6418 155.451 16.7785 158.501C16.4137 158.745 16.1706 158.867 15.6842 158.989C12.2799 159.111 8.87554 158.989 5.47119 158.989C5.59278 158.623 5.95753 158.501 6.20069 158.379C11.1856 155.329 16.2921 152.278 21.2771 149.106C21.6418 148.862 22.0066 148.74 22.3713 148.618Z" fill="#FE4800"/>
<path d="M34.7729 159.111C37.2046 157.647 39.5147 156.183 41.9464 154.718C44.986 152.888 48.0256 150.936 51.1868 149.106C51.3083 148.984 51.3083 148.862 51.6731 148.74C54.5911 148.74 57.6307 148.74 60.5487 148.74C56.9012 150.936 53.3753 153.132 49.7278 155.451C47.7824 156.671 45.7155 157.891 43.7701 159.111C40.7306 159.111 37.691 159.111 34.7729 159.111Z" fill="#E6E6E6"/>
<path d="M64.1962 152.766C62.0077 154.108 59.9408 155.329 57.7522 156.671C56.4148 157.525 54.9558 158.257 53.74 159.233C56.658 159.233 59.576 159.233 62.494 159.233L64.1962 152.766Z" fill="#E6E6E6"/>
<path d="M13.3742 148.618C13.2526 148.74 13.2526 148.862 13.131 148.862C9.48351 151.058 5.71442 153.376 2.06691 155.573L1.21582 158.989C2.67483 158.989 4.01225 158.989 5.47125 158.989C11.0641 155.573 16.7785 152.034 22.3714 148.618C19.3318 148.618 16.4138 148.618 13.3742 148.618Z" fill="#E6E6E6"/>
<path d="M41.2168 148.862C39.0283 150.204 36.8398 151.546 34.6513 152.766C31.3685 154.718 28.2073 156.671 24.9246 158.745C24.803 158.867 24.6814 158.867 24.5598 158.989C21.6418 158.989 18.6022 158.989 15.6842 158.989C18.1159 157.525 20.5476 155.939 22.9792 154.474C25.7757 152.766 28.6937 150.936 31.6117 149.228C31.9764 148.984 32.2196 148.862 32.5843 148.618C35.5024 148.618 38.4204 148.618 41.46 148.618C41.3384 148.74 41.3384 148.862 41.2168 148.862Z" fill="#E6E6E6"/>
<path d="M51.5515 148.74C48.1472 148.618 44.7428 148.618 41.3385 148.74V148.862C40.9737 148.862 40.609 149.106 40.2442 149.35C35.2593 152.4 30.2744 155.451 25.411 158.501C25.0463 158.745 24.6815 158.867 24.6815 159.233C28.0859 159.355 31.4902 159.355 34.8946 159.233C35.3809 159.111 35.7456 158.867 36.1104 158.623C40.609 155.817 45.2292 153.132 49.7278 150.326C50.0925 150.082 50.4573 149.838 50.822 149.594C50.9436 149.472 51.3084 149.35 51.1868 149.228C51.3084 148.862 51.4299 148.862 51.5515 148.74Z" fill="#FE4800"/>
<path d="M18.116 131.779C14.9548 131.657 11.7936 131.657 8.63247 131.779L6.80872 139.1C7.41663 138.734 8.02455 138.368 8.75406 137.88C11.6721 136.05 14.7117 134.219 17.6297 132.389C17.7513 132.267 18.116 132.023 18.116 131.779Z" fill="#FE4800"/>
<path d="M69.9107 131.901C68.3301 131.901 66.7495 131.901 65.0474 131.901C64.6826 132.023 64.4394 132.145 64.0747 132.389C59.0897 135.44 53.9832 138.49 48.9983 141.663C48.6335 141.907 48.2688 142.029 48.2688 142.395C51.6731 142.517 55.0775 142.517 58.4818 142.395C58.8466 142.273 59.0897 142.151 59.3329 142.029C62.4941 140.076 65.6553 138.124 68.8164 136.294L69.9107 131.901Z" fill="#FE4800"/>
<path d="M27.1132 131.779C30.5175 131.657 33.8003 131.779 37.2046 131.779C37.083 132.145 36.5967 132.389 36.2319 132.633C31.3686 135.684 26.3837 138.612 21.5203 141.663C21.1556 141.907 20.9124 142.029 20.426 142.151C17.0217 142.273 13.6174 142.151 10.213 142.151C10.3346 141.785 10.6993 141.663 10.9425 141.541C15.9274 138.49 21.034 135.44 26.0189 132.267C26.3837 132.023 26.6268 131.901 27.1132 131.779Z" fill="#FE4800"/>
<path d="M39.3932 142.273C41.8249 140.808 44.135 139.344 46.5666 137.88C49.6062 136.05 52.6458 134.097 55.807 132.267C55.9286 132.145 55.9286 132.023 56.2933 131.901C59.2113 131.901 62.2509 131.901 65.1689 131.901C61.5214 134.097 57.9955 136.294 54.348 138.612C52.4026 139.832 50.3357 141.052 48.3904 142.273C45.3508 142.273 42.4328 142.273 39.3932 142.273Z" fill="#E6E6E6"/>
<path d="M68.9381 135.928C66.7496 137.27 64.6827 138.49 62.4942 139.832C61.1568 140.686 59.6978 141.419 58.4819 142.395C61.3999 142.395 64.318 142.395 67.236 142.395L68.9381 135.928Z" fill="#E6E6E6"/>
<path d="M18.116 131.78C17.9944 131.902 17.9944 132.024 17.8728 132.024C14.2253 134.22 10.4562 136.538 6.80873 138.735L5.95764 142.151C7.41665 142.151 8.75407 142.151 10.2131 142.151C15.8059 138.735 21.5204 135.196 27.1132 131.78C24.0736 131.78 21.034 131.658 18.116 131.78Z" fill="#E6E6E6"/>
<path d="M45.9587 132.023C43.7702 133.365 41.5817 134.708 39.3932 135.928C36.1105 137.88 32.9493 139.832 29.6665 141.907C29.5449 142.029 29.4233 142.029 29.3018 142.151C26.3838 142.151 23.3442 142.151 20.4261 142.151C22.8578 140.686 25.2895 139.1 27.7212 137.636C30.5176 135.928 33.4356 134.097 36.3536 132.389C36.7184 132.145 36.9615 132.023 37.3263 131.779C40.2443 131.779 43.1623 131.779 46.2019 131.779C46.0803 131.901 46.0803 132.023 45.9587 132.023Z" fill="#E6E6E6"/>
<path d="M56.2933 131.901C52.889 131.779 49.4847 131.779 46.0803 131.901V132.023C45.7156 132.023 45.3508 132.267 44.9861 132.511C40.0011 135.562 35.0162 138.612 30.1528 141.663C29.7881 141.907 29.4233 142.029 29.4233 142.395C32.8277 142.517 36.232 142.517 39.6364 142.395C40.1227 142.273 40.4875 142.029 40.8522 141.785C45.3508 138.978 49.971 136.294 54.4696 133.487C54.8343 133.243 55.1991 132.999 55.5638 132.755C55.6854 132.633 56.0502 132.511 55.9286 132.389C55.9286 132.023 56.0502 132.023 56.2933 131.901Z" fill="#FE4800"/>
<path d="M66.5062 128.119H60.5486C59.4544 128.119 58.4817 127.265 58.4817 126.044V125.8C58.4817 124.702 59.3328 123.726 60.5486 123.726H66.5062C67.6005 123.726 68.5731 124.58 68.5731 125.8V126.044C68.5731 127.142 67.7221 128.119 66.5062 128.119Z" fill="#929799"/>
<path d="M63.5882 125.556H63.4666C62.7371 125.556 62.1292 124.946 62.1292 124.214V120.798C62.1292 120.065 62.7371 119.455 63.4666 119.455H63.5882C64.3177 119.455 64.9256 120.065 64.9256 120.798V124.214C64.9256 124.946 64.3177 125.556 63.5882 125.556Z" fill="#929799"/>
<path d="M63.345 121.164C66.031 121.164 68.2084 118.978 68.2084 116.283C68.2084 113.587 66.031 111.402 63.345 111.402C60.6591 111.402 58.4817 113.587 58.4817 116.283C58.4817 118.978 60.6591 121.164 63.345 121.164Z" fill="#929799"/>
<path d="M63.345 120.187C65.4938 120.187 67.2357 118.439 67.2357 116.283C67.2357 114.126 65.4938 112.378 63.345 112.378C61.1963 112.378 59.4543 114.126 59.4543 116.283C59.4543 118.439 61.1963 120.187 63.345 120.187Z" fill="#FEAC00"/>
</svg>
